<svg width="28" height="26" viewBox="0 0 28 26" fill="none" xmlns="http://www.w3.org/2000/svg">
<path fill-rule="evenodd" clip-rule="evenodd" d="M15.3347 0.74596C15.1296 0.835165 14.9432 0.965905 14.7864 1.13069C14.6291 1.29506 14.5043 1.49033 14.4192 1.7053C14.3341 1.92027 14.2903 2.15074 14.2903 2.38349C14.2903 2.61623 14.3341 2.8467 14.4192 3.06167C14.5043 3.27665 14.6291 3.47191 14.7864 3.63628L21.5752 10.7474H2.25908C1.78115 10.7474 1.32279 10.9847 0.984839 11.4071C0.64689 11.8296 0.457031 12.4025 0.457031 12.9999C0.457031 13.5973 0.64689 14.1703 0.984839 14.5927C1.32279 15.0152 1.78115 15.2525 2.25908 15.2525H21.5761L14.7864 22.3645C14.4693 22.6967 14.2911 23.1474 14.2911 23.6173C14.2911 24.0872 14.4693 24.5378 14.7864 24.8701C15.1034 25.2023 15.5335 25.389 15.9819 25.389C16.4304 25.389 16.8604 25.2023 17.1775 24.8701L27.3095 14.2532C27.4668 14.0888 27.5915 13.8935 27.6767 13.6786C27.7618 13.4636 27.8056 13.2331 27.8056 13.0004C27.8056 12.7676 27.7618 12.5372 27.6767 12.3222C27.5915 12.1072 27.4668 11.912 27.3095 11.7476L17.1775 1.13069C17.0207 0.965905 16.8343 0.835165 16.6291 0.74596C16.424 0.656756 16.2041 0.61084 15.9819 0.61084C15.7598 0.61084 15.5399 0.656756 15.3347 0.74596Z" fill="#F58021"/>
</svg>
