<svg width="55" height="24" viewBox="0 0 55 24" fill="none" xmlns="http://www.w3.org/2000/svg">
<path d="M0.726562 11.6093C0.726562 7.97449 1.75008 5.13637 3.77215 3.11981C5.79422 1.10325 8.6401 0.0825195 12.2599 0.0825195C15.9795 0.0825195 18.8253 1.07835 20.8474 3.07002C22.8695 5.06168 23.868 7.85001 23.868 11.435C23.868 14.0491 23.4187 16.1652 22.545 17.8332C21.6962 19.4764 20.3731 20.8207 18.7504 21.717C17.0779 22.6381 15.0059 23.1111 12.5345 23.1111C10.0131 23.1111 7.94111 22.7128 6.2935 21.9161C4.59596 21.0697 3.19798 19.7502 2.27432 18.132C1.25081 16.3893 0.726562 14.2233 0.726562 11.6093ZM7.61658 11.6342C7.61658 13.8748 8.04097 15.493 8.86477 16.4889C9.68858 17.4598 10.8369 17.9577 12.2848 17.9577C13.7577 17.9577 14.906 17.4847 15.7298 16.5138C16.5536 15.5428 16.9531 13.825 16.9531 11.3354C16.9531 9.24418 16.5287 7.70064 15.6799 6.7546C14.8311 5.78366 13.6828 5.31064 12.2349 5.31064C10.9617 5.26085 9.73851 5.80855 8.88974 6.77949C8.04097 7.75043 7.61658 9.36866 7.61658 11.6342ZM30.9328 11.6093C30.9328 7.97449 31.9563 5.13637 33.9784 3.11981C36.0005 1.10325 38.8463 0.0825195 42.4661 0.0825195C46.1857 0.0825195 49.0565 1.07835 51.0536 3.07002C53.0507 5.06168 54.0743 7.85001 54.0743 11.435C54.0743 14.0491 53.6249 16.1652 52.7512 17.8332C51.9024 19.4764 50.5793 20.8207 48.9567 21.717C47.2841 22.6381 45.2121 23.1111 42.7407 23.1111C40.2193 23.1111 38.1473 22.7128 36.4997 21.9161C34.8022 21.0697 33.4042 19.7502 32.4806 18.132C31.457 16.3893 30.9328 14.2233 30.9328 11.6093ZM37.8228 11.6342C37.8228 13.8748 38.2472 15.493 39.071 16.4889C39.8948 17.4598 41.0431 17.9577 42.4911 17.9577C43.9639 17.9577 45.1122 17.4847 45.9361 16.5138C46.7599 15.5428 47.1593 13.825 47.1593 11.3354C47.1593 9.24418 46.7349 7.70064 45.8861 6.7546C45.0374 5.78366 43.889 5.31064 42.4411 5.31064C41.168 5.26085 39.9198 5.80855 39.096 6.77949C38.2472 7.75043 37.8228 9.36866 37.8228 11.6342Z" fill="white"/>
</svg>
