<svg width="25" height="23" viewBox="0 0 25 23" fill="none" xmlns="http://www.w3.org/2000/svg">
<path fill-rule="evenodd" clip-rule="evenodd" d="M13.5008 0.180029C13.3187 0.259232 13.1532 0.375314 13.014 0.521623C12.8743 0.667564 12.7636 0.840935 12.688 1.03181C12.6124 1.22268 12.5735 1.4273 12.5735 1.63395C12.5735 1.8406 12.6124 2.04523 12.688 2.2361C12.7636 2.42697 12.8743 2.60034 13.014 2.74628L19.0417 9.06006H1.89102C1.46667 9.06006 1.0597 9.27077 0.759645 9.64585C0.459587 10.0209 0.291016 10.5296 0.291016 11.0601C0.291016 11.5905 0.459587 12.0992 0.759645 12.4743C1.0597 12.8493 1.46667 13.0601 1.89102 13.0601H19.0424L13.014 19.3747C12.7324 19.6697 12.5743 20.0698 12.5743 20.487C12.5743 20.9042 12.7324 21.3043 13.014 21.5993C13.2955 21.8943 13.6773 22.0601 14.0755 22.0601C14.4736 22.0601 14.8555 21.8943 15.137 21.5993L24.133 12.1728C24.2726 12.0269 24.3834 11.8535 24.459 11.6626C24.5346 11.4717 24.5735 11.2671 24.5735 11.0605C24.5735 10.8538 24.5346 10.6492 24.459 10.4583C24.3834 10.2675 24.2726 10.0941 24.133 9.94814L15.137 0.521623C14.9977 0.375314 14.8323 0.259232 14.6501 0.180029C14.468 0.100826 14.2727 0.0600586 14.0755 0.0600586C13.8783 0.0600586 13.683 0.100826 13.5008 0.180029Z" fill="white"/>
</svg>
